<svg width="900" height="300" viewBox="0 0 900 300" fill="none" xmlns="http://www.w3.org/2000/svg">
<g clip-path="url(#clip0_1027_162)">
<path d="M137.744 261.326L138.67 224.968L128.513 225.775L128.767 215.826L138.923 215.02L139.037 210.519C139.234 202.782 141.147 197.075 144.777 193.399C148.166 189.899 153.049 187.896 159.426 187.389C165.803 186.882 171.437 187.814 176.327 190.183L172.661 199.929C168.932 198.256 165.414 197.55 162.107 197.813C158.801 198.076 156.496 199.086 155.194 200.844C153.895 202.523 153.202 205.021 153.118 208.337L152.976 213.903L170.455 212.515L170.201 222.463L152.723 223.851L151.713 263.525L161.621 263.211L161.38 272.685L130.085 275.172L130.314 266.171L134.22 265.506C135.405 265.254 136.279 264.87 136.842 264.352C137.408 263.756 137.708 262.747 137.744 261.326ZM199.905 260.997C208.487 260.315 212.954 253.027 213.308 239.131C213.487 232.104 212.638 226.853 210.763 223.377C208.965 219.896 205.784 218.336 201.217 218.699C196.73 219.055 193.379 221.055 191.165 224.698C188.95 228.341 187.767 233.162 187.614 239.163C187.331 250.295 189.2 257.12 193.222 259.637C195 260.756 197.228 261.21 199.905 260.997ZM173.282 241.956C173.431 236.113 174.426 230.992 176.266 226.59C178.109 222.11 180.516 218.61 183.487 216.089C189.186 211.381 195.42 208.759 202.191 208.221C206.915 207.845 210.871 208.319 214.059 209.642C217.327 210.879 219.841 212.452 221.599 214.361C223.438 216.185 224.939 218.981 226.1 222.75C227.342 226.433 227.897 230.88 227.764 236.091C227.487 246.987 224.639 255.447 219.222 261.472C213.804 267.496 206.962 270.837 198.695 271.494C190.507 272.144 184.158 270.009 179.647 265.088C175.139 260.089 173.017 252.378 173.282 241.956ZM242.575 252.998L243.41 220.193C243.442 218.93 243.228 218.08 242.768 217.644C242.388 217.122 241.648 216.866 240.548 216.874L235.597 216.913L235.841 207.32L255.799 205.735L255.573 214.617C257.069 211.425 259.338 208.724 262.38 206.512C265.424 204.222 268.875 202.923 272.732 202.617C276.669 202.304 280.387 202.875 283.885 204.331L283.436 221.977L272.432 223.679L272.571 218.231C272.611 216.652 272.242 215.696 271.465 215.364C270.609 215.038 269.551 214.925 268.292 215.025C265.142 215.275 262.515 216.626 260.41 219.079C258.385 221.446 257.329 224.366 257.24 227.84L256.541 255.316L266.803 254.973L266.565 264.329L234.916 266.844L235.145 257.843L239.051 257.178C240.236 256.926 241.11 256.542 241.673 256.024C242.238 255.428 242.539 254.419 242.575 252.998ZM335.294 245.632L336.662 191.865L327.45 192.597C325.64 192.741 324.703 194.036 324.641 196.484L324.499 202.05L312.474 202.178L312.987 182.045L374.751 177.138L374.239 197.271L362.172 199.057L362.313 193.491C362.348 192.149 362.175 191.217 361.795 190.696C361.416 190.174 360.478 189.973 358.982 190.092L350.952 190.73L349.511 247.339L358.831 246.953L358.575 257.02L325.272 259.666L325.516 250.073L331.784 249.22C334.074 248.802 335.243 247.606 335.294 245.632ZM421.901 249.744L422.13 240.743C417.643 247.245 411.187 250.831 402.763 251.5C390.56 252.47 384.632 246.125 384.98 232.466L385.585 208.662C385.64 206.53 384.684 205.503 382.717 205.58L378.944 205.644L379.191 195.932L399.976 194.281L399.111 228.271C399.005 232.455 399.515 235.566 400.642 237.604C401.768 239.642 404.182 240.514 407.882 240.22C411.583 239.926 414.564 238.547 416.827 236.082C419.168 233.611 420.38 230.757 420.463 227.52L421.008 206.084C421.042 204.742 420.829 203.853 420.369 203.416C419.989 202.895 419.248 202.678 418.146 202.766L414.373 202.829L414.62 193.118L435.405 191.467L433.946 248.787C433.703 258.34 431.203 265.512 426.445 270.302C421.766 275.086 414.742 277.851 405.373 278.595C396.083 279.333 388.873 278.606 383.743 276.413L384.162 259.951L395.405 258.113L395.261 263.797C395.206 265.929 396.154 267.272 398.105 267.826C400.053 268.459 402.759 268.638 406.223 268.363C416.379 267.556 421.605 261.35 421.901 249.744ZM452.409 260.794L453.868 203.474C453.902 202.131 453.689 201.242 453.228 200.806C452.849 200.285 452.108 200.068 451.006 200.155L446.055 200.194L446.299 190.601L466.257 189.016L466.061 196.714C467.381 194.245 469.719 191.892 473.076 189.656C476.433 187.419 480.395 186.12 484.961 185.757C499.212 184.625 506.082 194.086 505.571 214.14C505.3 224.799 502.769 233.155 497.98 239.209C493.19 245.262 486.819 248.605 478.867 249.237C474.143 249.612 469.96 248.802 466.318 246.806L465.902 263.149L475.456 262.863L475.218 272.219L444.749 274.64L444.978 265.639L448.884 264.974C450.069 264.722 450.945 264.298 451.51 263.702C452.073 263.184 452.373 262.215 452.409 260.794ZM490.897 216.488C491.233 203.303 487.425 197.026 479.473 197.657C476.166 197.92 473.306 199.172 470.891 201.412C468.558 203.567 467.356 206.027 467.286 208.79L466.593 236.029C469.534 237.765 473.131 238.464 477.382 238.127C481.712 237.783 484.991 235.552 487.217 231.436C489.522 227.313 490.748 222.33 490.897 216.488ZM544.406 181.035C550.311 180.566 554.958 181.654 558.348 184.3C561.74 186.867 563.37 190.756 563.237 195.967C563.148 199.441 562.322 202.58 560.758 205.383C559.196 208.107 557.293 210.307 555.051 211.982C552.808 213.657 550.1 215.094 546.927 216.291C541.612 218.29 535.647 219.551 529.034 220.077C529.164 224.242 530.376 227.534 532.672 229.952C534.97 232.291 538.559 233.267 543.44 232.879C548.322 232.491 553.247 230.366 558.217 226.504L562.46 235.741C560.85 237.287 558.136 238.96 554.318 240.761C550.58 242.555 546.309 243.643 541.507 244.024C531.901 244.787 524.922 242.702 520.569 237.769C516.218 232.756 514.161 225.592 514.398 216.275C514.636 206.959 517.393 198.939 522.672 192.216C527.95 185.494 535.195 181.766 544.406 181.035ZM538.284 208.587C541.211 207.803 543.917 206.445 546.401 204.514C548.888 202.504 550.163 200.276 550.225 197.828C550.348 193.012 548.047 190.792 543.323 191.167C538.914 191.517 535.484 193.562 533.031 197.303C530.581 200.965 529.176 205.252 528.815 210.166C532.281 209.812 535.437 209.285 538.284 208.587ZM595.241 227.582C604.689 226.831 609.509 222.666 609.702 215.087C609.802 211.139 607.79 208.383 603.666 206.82C601.489 205.89 598.642 205.092 595.123 204.426C591.683 203.754 588.794 203.037 586.456 202.278C584.199 201.433 581.912 200.235 579.594 198.686C575.037 195.581 572.85 190.436 573.033 183.252C573.218 175.988 575.843 170.106 580.907 165.607C586.053 161.022 592.641 158.41 600.671 157.773C608.78 157.128 616.258 158.15 623.104 160.836L622.652 178.601L610.585 180.387L610.76 173.518C610.79 172.333 610.654 171.477 610.354 170.95C609.526 169.519 606.75 168.99 602.026 169.366C597.381 169.735 593.896 170.839 591.57 172.678C589.324 174.512 588.156 177.165 588.068 180.639C588.003 183.166 588.892 185.301 590.733 187.046C591.961 188.209 593.784 189.128 596.202 189.803C598.702 190.392 601.318 191.011 604.051 191.661C606.864 192.304 609.32 193.055 611.419 193.912C613.598 194.764 615.845 196.003 618.16 197.632C622.872 200.803 625.134 206.1 624.945 213.521C624.756 220.943 621.931 226.998 616.469 231.687C611.085 236.369 604.024 239.058 595.285 239.752C586.624 240.44 578.871 239.441 572.025 236.754L572.501 218.042L584.568 216.256L584.384 223.48C584.354 224.664 584.49 225.52 584.791 226.048C585.091 226.576 586.022 227.053 587.583 227.481C589.224 227.823 591.777 227.857 595.241 227.582ZM647.17 203.719C647 210.43 648.127 215.54 650.552 219.051C652.977 222.562 656.551 224.129 661.275 223.754C666.077 223.373 670.845 221.3 675.576 217.536L680.422 226.252C674.716 231.275 667.65 234.121 659.226 234.79C650.802 235.46 644.217 233.343 639.47 228.441C634.804 223.454 632.604 215.749 632.869 205.327C633.134 194.906 636.089 186.87 641.732 181.222C647.457 175.488 653.783 172.346 660.712 171.795C667.719 171.238 674.173 172.341 680.074 175.103L679.682 190.499L668.796 192.191L668.941 186.506C668.995 184.374 668.241 183.134 666.678 182.786C665.196 182.352 663.629 182.2 661.976 182.332C652.449 183.089 647.514 190.218 647.17 203.719ZM695.354 217.028L696.189 184.223C696.221 182.96 696.007 182.11 695.547 181.674C695.167 181.153 694.427 180.896 693.327 180.905L688.376 180.944L688.62 171.351L708.578 169.765L708.352 178.648C709.848 175.456 712.117 172.754 715.159 170.543C718.203 168.252 721.654 166.954 725.511 166.647C729.448 166.335 733.165 166.906 736.664 168.362L736.215 186.008L725.211 187.709L725.35 182.261C725.39 180.682 725.021 179.727 724.244 179.394C723.388 179.068 722.33 178.955 721.071 179.056C717.921 179.306 715.294 180.657 713.189 183.109C711.164 185.476 710.108 188.397 710.019 191.871L709.32 219.346L719.582 219.004L719.344 228.36L687.695 230.874L687.924 221.874L691.83 221.209C693.015 220.957 693.889 220.572 694.452 220.055C695.017 219.458 695.318 218.45 695.354 217.028ZM765.136 165.272L763.87 215.013L770.593 214.833L770.352 224.308L742.245 226.541L742.474 217.54L746.38 216.875C748.669 216.457 749.843 215.103 749.901 212.813L750.739 179.89C750.773 178.548 750.56 177.658 750.1 177.222C749.718 176.78 748.976 176.602 747.874 176.69L743.747 176.781L743.997 166.952L765.136 165.272ZM750.515 156.269C748.904 154.743 748.131 152.716 748.195 150.19C748.259 147.663 749.139 145.505 750.835 143.716C752.532 141.848 754.72 140.807 757.396 140.594C760.073 140.382 762.216 141.078 763.825 142.684C765.515 144.204 766.328 146.228 766.264 148.754C766.199 151.281 765.28 153.442 763.506 155.237C761.812 156.948 759.627 157.909 756.95 158.122C754.273 158.335 752.128 157.717 750.515 156.269ZM783.516 234.49L784.975 177.17C785.009 175.828 784.796 174.939 784.336 174.502C783.956 173.981 783.215 173.764 782.113 173.852L777.162 173.89L777.406 164.298L797.365 162.712L797.169 170.41C798.489 167.941 800.827 165.589 804.184 163.352C807.541 161.116 811.503 159.816 816.069 159.453C830.319 158.321 837.189 167.782 836.679 187.836C836.408 198.495 833.877 206.851 829.087 212.905C824.297 218.959 817.927 222.301 809.975 222.933C805.251 223.308 801.068 222.498 797.426 220.502L797.01 236.846L806.564 236.559L806.326 245.915L775.857 248.336L776.086 239.335L779.992 238.67C781.177 238.419 782.052 237.995 782.617 237.398C783.18 236.881 783.48 235.911 783.516 234.49ZM822.005 190.184C822.34 176.999 818.532 170.722 810.58 171.354C807.274 171.616 804.413 172.868 801.999 175.108C799.666 177.264 798.464 179.723 798.393 182.486L797.7 209.725C800.642 211.461 804.238 212.161 808.49 211.823C812.82 211.479 816.098 209.249 818.324 205.132C820.629 201.009 821.856 196.027 822.005 190.184ZM859.255 145.267L866.931 144.657L866.611 157.211L882.318 155.963L880.884 166.005L866.358 167.159L865.565 198.306C865.477 201.78 866.045 204.178 867.268 205.499C868.494 206.741 870.405 207.259 873.004 207.052C875.68 206.84 878.378 205.798 881.097 203.927L884.408 212.765C880.401 215.841 875.367 217.62 869.305 218.101C865.762 218.383 862.782 218.147 860.365 217.393C857.947 216.719 856.161 215.876 855.008 214.864C853.855 213.853 852.991 212.306 852.416 210.224C851.84 208.143 851.528 206.513 851.479 205.335C851.433 204.078 851.44 202.265 851.5 199.896L852.305 168.276L843.92 168.942L845.321 160.202C849.029 159.593 851.857 158.068 853.805 155.628C855.755 153.109 857.571 149.656 859.255 145.267Z" fill="#211F26"/>
<path d="M41.4759 154.61C50.9236 153.859 55.7439 149.694 55.9368 142.115C56.0372 138.167 54.0252 135.411 49.9007 133.848C47.7244 132.918 44.8768 132.12 41.3581 131.454C37.918 130.781 35.0291 130.065 32.6913 129.306C30.4342 128.461 28.1468 127.263 25.8291 125.714C21.2724 122.609 19.0855 117.464 19.2683 110.28C19.4532 103.016 22.0779 97.1342 27.1424 92.6346C32.2877 88.0498 38.8756 85.4384 46.9061 84.8005C55.0154 84.1563 62.493 85.1775 69.3389 87.8642L68.8868 105.629L56.8199 107.415L56.9947 100.546C57.0248 99.3614 56.8895 98.5054 56.5886 97.9778C55.7608 96.5465 52.9849 96.0184 48.2611 96.3937C43.616 96.7627 40.1307 97.8669 37.8053 99.7063C35.5586 101.539 34.3911 104.193 34.3027 107.667C34.2384 110.193 35.1269 112.329 36.9682 114.074C38.1958 115.237 40.0188 116.156 42.4374 116.831C44.9367 117.42 47.553 118.039 50.2865 118.689C53.0987 119.332 55.5546 120.083 57.6542 120.94C59.8326 121.792 62.0796 123.031 64.3953 124.66C69.1075 127.831 71.3691 133.127 71.1802 140.549C70.9913 147.971 68.1658 154.026 62.7036 158.715C57.3201 163.397 50.2588 166.086 41.5197 166.78C32.8593 167.468 25.1062 166.468 18.2602 163.782L18.7365 145.07L30.8034 143.284L30.6195 150.508C30.5894 151.692 30.7247 152.548 31.0256 153.076C31.3265 153.604 32.2572 154.081 33.8177 154.509C35.459 154.851 38.0117 154.885 41.4759 154.61ZM78.9046 112.397L79.1487 102.804L99.107 101.219L98.9111 108.917C103.481 102.25 109.584 98.6135 117.221 98.0069C124.937 97.3939 130.052 100.139 132.569 106.243C137.138 99.5763 143.202 95.9429 150.76 95.3424C156.429 94.8921 160.754 96.282 163.736 99.512C166.72 102.663 168.125 107.673 167.95 114.542L167.164 145.452L173.886 145.273L173.645 154.747L145.538 156.98L145.767 147.979L149.673 147.314C150.858 147.063 151.693 146.681 152.177 146.17C152.743 145.573 153.082 144.601 153.195 143.253L153.818 118.738C153.929 114.395 153.499 111.238 152.527 109.267C151.637 107.21 149.381 106.326 145.759 106.613C142.137 106.901 139.314 108.228 137.29 110.595C135.344 112.956 134.324 115.992 134.23 119.703L133.506 148.126L139.992 147.965L139.751 157.44L111.881 159.654L112.11 150.653L116.016 149.988C117.201 149.736 118.075 149.352 118.638 148.834C119.203 148.238 119.504 147.229 119.54 145.808L120.161 121.411C120.272 117.069 119.841 113.912 118.87 111.941C117.979 109.884 115.684 109.002 111.984 109.296C108.362 109.584 105.577 110.948 103.629 113.388C101.682 115.827 100.665 118.745 100.578 122.14L99.8487 150.8L106.217 150.648L105.976 160.123L78.1051 162.337L78.3341 153.336L82.2403 152.671C83.4253 152.42 84.2994 152.035 84.8626 151.518C85.4277 150.921 85.7284 149.912 85.7646 148.491L85.8827 148.482L86.7146 115.795C86.7487 114.453 86.5356 113.564 86.0753 113.127C85.6957 112.606 84.9558 112.35 83.8556 112.358L78.9046 112.397ZM235.118 92.7776L233.997 136.833C233.965 138.097 234.14 138.95 234.521 139.392C234.982 139.828 235.762 140.042 236.862 140.033L240.635 139.97L240.394 149.444L221.617 150.936L221.792 144.067L221.44 143.977C217.359 149.974 211.894 153.245 205.044 153.789C197.014 154.427 191.135 152.333 187.408 147.508C183.68 142.682 181.93 135.809 182.157 126.887C182.431 116.149 185.242 107.574 190.591 101.161C195.94 94.7475 203.81 91.1281 214.203 90.3025C220.895 89.7708 227.867 90.5959 235.118 92.7776ZM220.443 132.237L221.223 101.564C219.045 100.713 216.027 100.44 212.169 100.747C206.894 101.166 203.021 103.601 200.551 108.052C198.081 112.503 196.756 118.242 196.577 125.269C196.252 138.059 200.183 144.129 208.371 143.479C211.835 143.204 214.695 141.952 216.952 139.724C219.211 137.417 220.374 134.922 220.443 132.237ZM255.303 135.023L256.138 102.218C256.17 100.954 255.956 100.105 255.495 99.6685C255.116 99.1471 254.376 98.8907 253.276 98.8993L248.325 98.9381L248.569 89.3452L268.527 87.7597L268.301 96.642C269.797 93.4502 272.065 90.7486 275.107 88.5371C278.151 86.2466 281.602 84.9482 285.46 84.6417C289.397 84.329 293.114 84.9004 296.613 86.3559L296.164 104.002L285.16 105.703L285.298 100.256C285.339 98.6766 284.97 97.721 284.193 97.3887C283.337 97.0628 282.279 96.9498 281.019 97.0499C277.87 97.3001 275.243 98.6513 273.137 101.104C271.113 103.471 270.056 106.391 269.968 109.865L269.269 137.341L279.531 136.998L279.293 146.354L247.643 148.869L247.872 139.868L251.778 139.203C252.963 138.951 253.838 138.567 254.401 138.049C254.966 137.453 255.267 136.444 255.303 135.023ZM317.138 71.3698L324.814 70.76L324.495 83.3136L340.201 82.0658L338.767 92.1077L324.241 93.2617L323.449 124.409C323.36 127.883 323.928 130.28 325.151 131.601C326.377 132.843 328.289 133.361 330.887 133.155C333.564 132.942 336.262 131.901 338.981 130.03L342.291 138.868C338.285 141.944 333.25 143.723 327.188 144.204C323.645 144.486 320.665 144.25 318.249 143.496C315.83 142.821 314.044 141.978 312.891 140.967C311.739 139.955 310.874 138.409 310.299 136.327C309.723 134.245 309.411 132.615 309.363 131.437C309.316 130.18 309.323 128.368 309.383 125.999L310.188 94.3781L301.803 95.0442L303.204 86.305C306.912 85.6952 309.741 84.1705 311.688 81.7307C313.638 79.212 315.455 75.7584 317.138 71.3698ZM378.938 87.9709C377.067 87.4105 374.793 87.2366 372.116 87.4492C369.439 87.6619 367.258 88.4655 365.572 89.8601C363.968 91.1695 363.142 92.7321 363.096 94.5481C363.052 96.285 363.292 97.6448 363.817 98.6274C364.423 99.5248 365.347 100.279 366.588 100.889C368.53 101.759 370.869 102.48 373.605 103.05C376.342 103.542 378.374 103.971 379.7 104.339C381.029 104.627 382.664 105.207 384.606 106.077C386.627 106.94 388.134 107.924 389.128 109.027C391.809 111.729 393.091 115.37 392.975 119.949C392.824 125.871 390.54 130.701 386.124 134.44C381.788 138.094 376.313 140.183 369.7 140.709C360.095 141.472 352.883 140.823 348.064 138.764L348.483 122.302L359.132 120.628L358.988 126.313C358.899 129.787 362.162 131.261 368.775 130.736C375.388 130.211 378.756 127.54 378.879 122.724C378.923 120.987 378.369 119.612 377.216 118.601C376.142 117.583 375.059 116.921 373.967 116.613C372.874 116.306 371.546 116.018 369.981 115.748C368.496 115.472 367.01 115.196 365.524 114.92C364.117 114.638 362.555 114.25 360.839 113.756C359.204 113.177 357.379 112.337 355.364 111.236C351.415 108.95 349.518 104.767 349.673 98.6874C349.83 92.529 352.115 87.6198 356.53 83.9598C360.944 80.2998 366.419 78.2102 372.954 77.6911C379.567 77.1657 386.061 78.2256 392.437 80.8709L392.075 95.0825L381.426 96.7558L381.552 91.7818C381.602 89.808 380.731 88.5377 378.938 87.9709ZM407.533 122.929L409.001 65.254C409.033 63.9907 408.819 63.141 408.359 62.7048C407.977 62.2623 407.236 62.0454 406.136 62.054L402.009 62.1455L402.259 52.3158L423.28 50.6459L422.469 82.5035C426.712 76.3358 432.534 72.9579 439.934 72.37C445.918 71.8947 450.48 73.2657 453.619 76.4832C456.839 79.6156 458.362 84.6162 458.187 91.4851L457.401 122.395L464.123 122.216L463.882 131.69L435.775 133.923L436.004 124.922L439.91 124.258C441.095 124.006 441.969 123.621 442.533 123.104C443.098 122.507 443.398 121.498 443.435 120.077L444.055 95.6807C444.16 91.5751 443.571 88.4702 442.289 86.3658C441.086 84.2552 438.594 83.35 434.815 83.6502C431.115 83.9442 428.093 85.3661 425.749 87.9161C423.487 90.3809 422.313 93.2713 422.229 96.5873L421.499 125.247L428.222 125.068L427.981 134.542L399.874 136.775L400.103 127.774L404.009 127.11C405.194 126.858 406.068 126.473 406.631 125.956C407.196 125.359 407.497 124.35 407.533 122.929ZM502.007 67.4389C507.912 66.9698 512.559 68.0583 515.949 70.7043C519.341 73.2715 520.97 77.1605 520.838 82.3714C520.749 85.8453 519.923 88.9839 518.359 91.7872C516.797 94.5115 514.894 96.7112 512.651 98.3865C510.409 100.062 507.701 101.498 504.528 102.696C499.212 104.694 493.248 105.956 486.635 106.481C486.764 110.647 487.977 113.939 490.273 116.356C492.57 118.695 496.16 119.671 501.041 119.283C505.922 118.895 510.848 116.77 515.818 112.909L520.061 122.145C518.45 123.691 515.736 125.365 511.919 127.165C508.181 128.959 503.91 130.047 499.107 130.428C489.502 131.191 482.523 129.106 478.17 124.173C473.819 119.161 471.762 111.996 471.999 102.68C472.236 93.3632 474.994 85.3435 480.272 78.6207C485.551 71.8979 492.795 68.1706 502.007 67.4389ZM495.884 94.9909C498.811 94.2068 501.517 92.8493 504.002 90.9184C506.489 88.9086 507.764 86.68 507.826 84.2324C507.949 79.4162 505.648 77.1958 500.924 77.5711C496.515 77.9213 493.085 79.9667 490.632 83.7073C488.182 87.3688 486.776 91.6566 486.415 96.5704C489.882 96.2163 493.038 95.6898 495.884 94.9909ZM559.21 62.8946C565.115 62.4255 569.762 63.514 573.152 66.1601C576.544 68.7272 578.173 72.6162 578.04 77.8271C577.952 81.3011 577.126 84.4397 575.562 87.2429C573.999 89.9672 572.097 92.167 569.854 93.8422C567.612 95.5174 564.904 96.9539 561.73 98.1515C556.415 100.15 550.451 101.411 543.838 101.937C543.967 106.102 545.18 109.394 547.475 111.812C549.773 114.151 553.363 115.127 558.244 114.739C563.125 114.351 568.051 112.226 573.02 108.364L577.264 117.601C575.653 119.147 572.939 120.82 569.122 122.621C565.383 124.415 561.113 125.503 556.31 125.884C546.705 126.647 539.726 124.562 535.373 119.629C531.022 114.616 528.965 107.452 529.202 98.1354C529.439 88.8189 532.197 80.7993 537.475 74.0765C542.753 67.3537 549.998 63.6264 559.21 62.8946ZM553.087 90.4466C556.014 89.6625 558.72 88.305 561.205 86.3742C563.692 84.3644 564.967 82.1357 565.029 79.6881C565.151 74.872 562.851 72.6515 558.127 73.0268C553.718 73.377 550.287 75.4224 547.835 79.163C545.385 82.8246 543.979 87.1123 543.618 92.0261C547.084 91.672 550.241 91.1455 553.087 90.4466ZM600.153 48.8866L607.83 48.2768L607.51 60.8304L623.217 59.5826L621.783 69.6245L607.257 70.7785L606.464 101.926C606.376 105.4 606.943 107.797 608.167 109.118C609.393 110.36 611.304 110.878 613.902 110.672C616.579 110.459 619.277 109.417 621.996 107.547L625.307 116.384C621.3 119.46 616.266 121.239 610.203 121.721C606.66 122.002 603.681 121.766 601.264 121.013C598.846 120.338 597.06 119.495 595.907 118.484C594.754 117.472 593.89 115.925 593.315 113.844C592.739 111.762 592.427 110.132 592.378 108.954C592.332 107.697 592.339 105.884 592.399 103.516L593.204 71.8949L584.819 72.561L586.22 63.8218C589.928 63.2121 592.756 61.6873 594.704 59.2475C596.654 56.7288 598.47 53.2752 600.153 48.8866ZM678.203 104.027C687.651 103.277 692.471 99.1115 692.664 91.532C692.765 87.5843 690.753 84.8288 686.628 83.2654C684.452 82.3352 681.604 81.5371 678.086 80.8711C674.646 80.1988 671.757 79.4828 669.419 78.723C667.162 77.878 664.874 76.6808 662.557 75.1315C658 72.0266 655.813 66.8817 655.996 59.697C656.181 52.4333 658.805 46.5516 663.87 42.052C669.015 37.4672 675.603 34.8558 683.634 34.2179C691.743 33.5737 699.221 34.5949 706.067 37.2816L705.614 55.0461L693.548 56.832L693.722 49.9631C693.752 48.7788 693.617 47.9228 693.316 47.3952C692.488 45.9638 689.713 45.4358 684.989 45.8111C680.344 46.1801 676.858 47.2843 674.533 49.1237C672.286 50.9569 671.119 53.6104 671.03 57.0843C670.966 59.6108 671.855 61.7465 673.696 63.4913C674.923 64.6544 676.746 65.5733 679.165 66.2479C681.664 66.8373 684.281 67.4568 687.014 68.1064C689.826 68.7497 692.282 69.5001 694.382 70.3576C696.56 71.2089 698.807 72.4487 701.123 74.077C705.835 77.2483 708.097 82.5448 707.908 89.9664C707.719 97.3881 704.893 103.443 699.431 108.132C694.048 112.815 686.986 115.503 678.247 116.197C669.587 116.885 661.834 115.886 654.988 113.199L655.464 94.4872L667.531 92.7013L667.347 99.9255C667.317 101.11 667.452 101.966 667.753 102.493C668.054 103.021 668.985 103.499 670.545 103.926C672.187 104.269 674.739 104.302 678.203 104.027ZM715.187 111.726L715.431 102.133L719.337 101.468C721.627 101.05 722.796 99.8542 722.846 97.8804L724.248 42.8105L717.526 42.9899L717.782 32.9234L750.14 30.3528C761.714 29.4334 770.65 31.7964 776.949 37.4419C783.327 43.0811 786.362 51.9407 786.055 64.0205C785.864 71.5211 784.713 78.1524 782.602 83.9144C780.493 89.5975 777.706 94.1526 774.24 97.5797C767.308 104.434 758.804 108.261 748.726 109.062L715.187 111.726ZM738.629 42.7318L737.206 98.6307L749.252 97.6737C756.023 97.1358 761.36 94.2692 765.264 89.0739C769.167 83.8786 771.238 76.6227 771.475 67.3062C771.937 49.147 764.492 40.6772 749.139 41.8968L738.629 42.7318ZM801.164 91.0678L802.55 36.59L795.828 36.7695L796.084 26.7029L824.427 24.4513L824.183 34.0441L820.277 34.709C817.988 35.1273 816.814 36.4812 816.756 38.7708L816.093 64.8254L840.932 33.5409L834.327 33.711L834.584 23.6445L862.218 21.4491L861.974 31.042L858.068 31.7069C856.568 31.9836 854.965 33.214 853.259 35.3982L835.965 57.3372L855.991 90.1397L862.241 89.9978L861.985 100.064L831.752 102.466L831.997 92.8732L835.667 92.2271C837.245 91.9441 838.049 91.2499 838.077 90.1446C838.089 89.6709 837.908 89.0549 837.535 88.2966L826.358 68.9739L815.646 82.353L815.366 93.367L822.089 93.1876L821.832 103.254L793.489 105.506L793.733 95.9129L797.64 95.248C798.825 94.9963 799.699 94.6117 800.262 94.0942C800.827 93.4977 801.128 92.4889 801.164 91.0678Z" fill="#211F26"/>
</g>
<defs>
<clipPath id="clip0_1027_162">
<rect width="900" height="300" fill="white"/>
</clipPath>
</defs>
</svg>
