<svg width="1500" height="300" viewBox="0 0 1500 300" fill="none" xmlns="http://www.w3.org/2000/svg">
<g clip-path="url(#clip0_1025_134)">
<path d="M125.021 261.326L125.946 224.968L115.79 225.775L116.043 215.826L126.199 215.02L126.314 210.519C126.511 202.782 128.424 197.075 132.053 193.399C135.442 189.899 140.325 187.896 146.703 187.389C153.08 186.882 158.713 187.814 163.603 190.183L159.937 199.929C156.208 198.256 152.69 197.55 149.384 197.813C146.077 198.076 143.773 199.086 142.471 200.844C141.171 202.523 140.479 205.021 140.394 208.337L140.253 213.903L157.731 212.515L157.478 222.463L140 223.851L138.99 263.525L148.898 263.211L148.657 272.685L117.361 275.172L117.59 266.171L121.497 265.506C122.682 265.254 123.556 264.87 124.119 264.352C124.684 263.756 124.985 262.747 125.021 261.326ZM187.181 260.997C195.763 260.315 200.231 253.027 200.584 239.131C200.763 232.104 199.915 226.853 198.039 223.377C196.242 219.896 193.06 218.336 188.494 218.699C184.006 219.055 180.655 221.055 178.441 224.698C176.227 228.341 175.043 233.162 174.891 239.163C174.607 250.295 176.477 257.12 180.498 259.637C182.277 260.756 184.505 261.21 187.181 260.997ZM160.559 241.956C160.708 236.113 161.702 230.992 163.543 226.59C165.385 222.11 167.792 218.61 170.764 216.089C176.462 211.381 182.697 208.759 189.467 208.221C194.191 207.845 198.147 208.319 201.335 209.642C204.603 210.879 207.117 212.452 208.876 214.361C210.715 216.185 212.215 218.981 213.376 222.75C214.618 226.433 215.173 230.88 215.04 236.091C214.763 246.987 211.916 255.447 206.498 261.472C201.08 267.496 194.238 270.837 185.971 271.494C177.783 272.144 171.434 270.009 166.924 265.088C162.415 260.089 160.294 252.378 160.559 241.956ZM229.851 252.998L230.686 220.193C230.718 218.93 230.504 218.08 230.044 217.644C229.664 217.122 228.925 216.866 227.824 216.874L222.873 216.913L223.117 207.32L243.076 205.735L242.85 214.617C244.345 211.425 246.614 208.724 249.656 206.512C252.7 204.222 256.151 202.923 260.009 202.617C263.945 202.304 267.663 202.875 271.162 204.331L270.712 221.977L259.708 223.679L259.847 218.231C259.887 216.652 259.519 215.696 258.741 215.364C257.885 215.038 256.828 214.925 255.568 215.025C252.419 215.275 249.791 216.626 247.686 219.079C245.662 221.446 244.605 224.366 244.517 227.84L243.817 255.316L254.08 254.973L253.842 264.329L222.192 266.844L222.421 257.843L226.327 257.178C227.512 256.926 228.386 256.542 228.949 256.024C229.515 255.428 229.815 254.419 229.851 252.998ZM322.57 245.632L323.938 191.865L314.727 192.597C312.916 192.741 311.979 194.036 311.917 196.484L311.775 202.05L299.751 202.178L300.263 182.045L362.027 177.138L361.515 197.271L349.448 199.057L349.59 193.491C349.624 192.149 349.451 191.217 349.072 190.696C348.692 190.174 347.754 189.973 346.258 190.092L338.228 190.73L336.787 247.339L346.108 246.953L345.852 257.02L312.548 259.666L312.793 250.073L319.061 249.22C321.35 248.802 322.52 247.606 322.57 245.632ZM409.177 249.744L409.406 240.743C404.919 247.245 398.464 250.831 390.039 251.5C377.836 252.47 371.908 246.125 372.256 232.466L372.862 208.662C372.916 206.53 371.96 205.503 369.994 205.58L366.221 205.644L366.468 195.932L387.253 194.281L386.388 228.271C386.281 232.455 386.791 235.566 387.918 237.604C389.045 239.642 391.458 240.514 395.159 240.22C398.859 239.926 401.841 238.547 404.103 236.082C406.445 233.611 407.657 230.757 407.739 227.52L408.285 206.084C408.319 204.742 408.106 203.853 407.645 203.416C407.266 202.895 406.525 202.678 405.423 202.766L401.65 202.829L401.897 193.118L422.682 191.467L421.223 248.787C420.98 258.34 418.479 265.512 413.722 270.302C409.043 275.086 402.019 277.851 392.65 278.595C383.36 279.333 376.15 278.606 371.02 276.413L371.439 259.951L382.682 258.113L382.537 263.797C382.483 265.929 383.431 267.272 385.381 267.826C387.329 268.459 390.035 268.638 393.5 268.363C403.656 267.556 408.882 261.35 409.177 249.744ZM439.685 260.794L441.144 203.474C441.178 202.131 440.965 201.242 440.505 200.806C440.125 200.285 439.384 200.068 438.282 200.155L433.331 200.194L433.575 190.601L453.533 189.016L453.337 196.714C454.657 194.245 456.996 191.892 460.353 189.656C463.71 187.419 467.671 186.12 472.238 185.757C486.488 184.625 493.358 194.086 492.848 214.14C492.576 224.799 490.046 233.155 485.256 239.209C480.466 245.262 474.095 248.605 466.144 249.237C461.42 249.612 457.237 248.802 453.595 246.806L453.179 263.149L462.732 262.863L462.494 272.219L432.026 274.64L432.255 265.639L436.161 264.974C437.346 264.722 438.221 264.298 438.786 263.702C439.349 263.184 439.649 262.215 439.685 260.794ZM478.174 216.488C478.509 203.303 474.701 197.026 466.749 197.657C463.442 197.92 460.582 199.172 458.168 201.412C455.834 203.567 454.633 206.027 454.562 208.79L453.869 236.029C456.811 237.765 460.407 238.464 464.658 238.127C468.989 237.783 472.267 235.552 474.493 231.436C476.798 227.313 478.025 222.33 478.174 216.488ZM531.683 181.035C537.587 180.566 542.235 181.654 545.624 184.3C549.016 186.867 550.646 190.756 550.513 195.967C550.425 199.441 549.599 202.58 548.034 205.383C546.472 208.107 544.57 210.307 542.327 211.982C540.084 213.657 537.376 215.094 534.203 216.291C528.888 218.29 522.924 219.551 516.31 220.077C516.44 224.242 517.653 227.534 519.948 229.952C522.246 232.291 525.835 233.267 530.717 232.879C535.598 232.491 540.523 230.366 545.493 226.504L549.737 235.741C548.126 237.287 545.412 238.96 541.595 240.761C537.856 242.555 533.586 243.643 528.783 244.024C519.178 244.787 512.199 242.702 507.846 237.769C503.495 232.756 501.438 225.592 501.675 216.275C501.912 206.959 504.67 198.939 509.948 192.216C515.226 185.494 522.471 181.766 531.683 181.035ZM525.56 208.587C528.487 207.803 531.193 206.445 533.678 204.514C536.165 202.504 537.439 200.276 537.502 197.828C537.624 193.012 535.324 190.792 530.6 191.167C526.191 191.517 522.76 193.562 520.308 197.303C517.857 200.965 516.452 205.252 516.091 210.166C519.557 209.812 522.714 209.285 525.56 208.587ZM582.517 227.582C591.965 226.831 596.785 222.666 596.978 215.087C597.079 211.139 595.067 208.383 590.942 206.82C588.766 205.89 585.918 205.092 582.399 204.426C578.959 203.754 576.07 203.037 573.733 202.278C571.476 201.433 569.188 200.235 566.87 198.686C562.314 195.581 560.127 190.436 560.31 183.252C560.495 175.988 563.119 170.106 568.184 165.607C573.329 161.022 579.917 158.41 587.947 157.773C596.057 157.128 603.534 158.15 610.38 160.836L609.928 178.601L597.861 180.387L598.036 173.518C598.066 172.333 597.931 171.477 597.63 170.95C596.802 169.519 594.026 168.99 589.302 169.366C584.657 169.735 581.172 170.839 578.847 172.678C576.6 174.512 575.432 177.165 575.344 180.639C575.28 183.166 576.168 185.301 578.01 187.046C579.237 188.209 581.06 189.128 583.479 189.803C585.978 190.392 588.594 191.011 591.328 191.661C594.14 192.304 596.596 193.055 598.696 193.912C600.874 194.764 603.121 196.003 605.437 197.632C610.149 200.803 612.41 206.1 612.222 213.521C612.033 220.943 609.207 226.998 603.745 231.687C598.361 236.369 591.3 239.058 582.561 239.752C573.901 240.44 566.148 239.441 559.302 236.754L559.778 218.042L571.845 216.256L571.661 223.48C571.631 224.664 571.766 225.52 572.067 226.048C572.368 226.576 573.298 227.053 574.859 227.481C576.5 227.823 579.053 227.857 582.517 227.582ZM634.447 203.719C634.276 210.43 635.403 215.54 637.828 219.051C640.253 222.562 643.827 224.129 648.551 223.754C653.354 223.373 658.121 221.3 662.852 217.536L667.698 226.252C661.992 231.275 654.927 234.121 646.503 234.79C638.078 235.46 631.493 233.343 626.746 228.441C622.08 223.454 619.88 215.749 620.145 205.327C620.41 194.906 623.365 186.87 629.009 181.222C634.733 175.488 641.06 172.346 647.988 171.795C654.995 171.238 661.449 172.341 667.35 175.103L666.958 190.499L656.072 192.191L656.217 186.506C656.271 184.374 655.517 183.134 653.955 182.786C652.473 182.352 650.905 182.2 649.252 182.332C639.725 183.089 634.79 190.218 634.447 203.719ZM682.63 217.028L683.465 184.223C683.497 182.96 683.283 182.11 682.823 181.674C682.443 181.153 681.704 180.896 680.603 180.905L675.652 180.944L675.896 171.351L695.855 169.765L695.629 178.648C697.124 175.456 699.393 172.754 702.435 170.543C705.479 168.252 708.93 166.954 712.788 166.647C716.724 166.335 720.442 166.906 723.941 168.362L723.491 186.008L712.487 187.709L712.626 182.261C712.666 180.682 712.298 179.727 711.52 179.394C710.664 179.068 709.607 178.955 708.347 179.056C705.198 179.306 702.57 180.657 700.465 183.109C698.441 185.476 697.384 188.397 697.296 191.871L696.596 219.346L706.859 219.004L706.621 228.36L674.971 230.874L675.2 221.874L679.106 221.209C680.291 220.957 681.165 220.572 681.728 220.055C682.294 219.458 682.594 218.45 682.63 217.028ZM752.413 165.272L751.147 215.013L757.869 214.833L757.628 224.308L729.521 226.541L729.75 217.54L733.656 216.875C735.946 216.457 737.119 215.103 737.178 212.813L738.016 179.89C738.05 178.548 737.837 177.658 737.376 177.222C736.995 176.78 736.253 176.602 735.151 176.69L731.023 176.781L731.273 166.952L752.413 165.272ZM737.792 156.269C736.181 154.743 735.407 152.716 735.471 150.19C735.536 147.663 736.416 145.505 738.111 143.716C739.809 141.848 741.996 140.807 744.673 140.594C747.35 140.382 749.493 141.078 751.102 142.684C752.792 144.204 753.604 146.228 753.54 148.754C753.476 151.281 752.557 153.442 750.782 155.237C749.089 156.948 746.904 157.909 744.227 158.122C741.55 158.335 739.405 157.717 737.792 156.269ZM770.793 234.49L772.252 177.17C772.286 175.828 772.073 174.939 771.612 174.502C771.233 173.981 770.492 173.764 769.39 173.852L764.439 173.89L764.683 164.298L784.641 162.712L784.445 170.41C785.765 167.941 788.103 165.589 791.46 163.352C794.817 161.116 798.779 159.816 803.345 159.453C817.596 158.321 824.466 167.782 823.955 187.836C823.684 198.495 821.153 206.851 816.364 212.905C811.574 218.959 805.203 222.301 797.251 222.933C792.527 223.308 788.344 222.498 784.702 220.502L784.286 236.846L793.84 236.559L793.602 245.915L763.133 248.336L763.362 239.335L767.268 238.67C768.453 238.419 769.329 237.995 769.894 237.398C770.457 236.881 770.757 235.911 770.793 234.49ZM809.281 190.184C809.617 176.999 805.809 170.722 797.857 171.354C794.55 171.616 791.69 172.868 789.275 175.108C786.942 177.264 785.74 179.723 785.67 182.486L784.977 209.725C787.918 211.461 791.515 212.161 795.766 211.823C800.096 211.479 803.374 209.249 805.601 205.132C807.906 201.009 809.132 196.027 809.281 190.184ZM846.531 145.267L854.207 144.657L853.888 157.211L869.594 155.963L868.16 166.005L853.635 167.159L852.842 198.306C852.753 201.78 853.321 204.178 854.544 205.499C855.77 206.741 857.682 207.259 860.28 207.052C862.957 206.84 865.655 205.798 868.374 203.927L871.685 212.765C867.678 215.841 862.643 217.62 856.581 218.101C853.038 218.383 850.058 218.147 847.642 217.393C845.223 216.719 843.438 215.876 842.285 214.864C841.132 213.853 840.268 212.306 839.692 210.224C839.116 208.143 838.804 206.513 838.756 205.335C838.709 204.078 838.716 202.265 838.776 199.896L839.581 168.276L831.196 168.942L832.597 160.202C836.306 159.593 839.134 158.068 841.082 155.628C843.031 153.109 844.848 149.656 846.531 145.267Z" fill="#211F26"/>
<path d="M28.7532 154.61C38.2009 153.859 43.0212 149.694 43.2141 142.115C43.3146 138.167 41.3026 135.411 37.1781 133.848C35.0017 132.918 32.1542 132.12 28.6354 131.454C25.1954 130.781 22.3064 130.065 19.9686 129.306C17.7115 128.461 15.4242 127.263 13.1064 125.714C8.54973 122.609 6.36281 117.464 6.54566 110.28C6.73052 103.016 9.35522 97.1342 14.4197 92.6346C19.565 88.0498 26.1529 85.4384 34.1835 84.8005C42.2927 84.1563 49.7703 85.1775 56.6163 87.8642L56.1641 105.629L44.0972 107.415L44.2721 100.546C44.3022 99.3614 44.1668 98.5054 43.866 97.9778C43.0381 96.5465 40.2623 96.0184 35.5384 96.3937C30.8933 96.7627 27.408 97.8669 25.0827 99.7063C22.836 101.539 21.6685 104.193 21.58 107.667C21.5157 110.193 22.4043 112.329 24.2456 114.074C25.4731 115.237 27.2962 116.156 29.7147 116.831C32.214 117.42 34.8304 118.039 37.5639 118.689C40.3761 119.332 42.832 120.083 44.9316 120.94C47.1099 121.792 49.3569 123.031 51.6727 124.66C56.3848 127.831 58.6464 133.127 58.4576 140.549C58.2687 147.971 55.4431 154.026 49.9809 158.715C44.5975 163.397 37.5362 166.086 28.7971 166.78C20.1367 167.468 12.3835 166.468 5.53759 163.782L6.01381 145.07L18.0807 143.284L17.8969 150.508C17.8667 151.692 18.0021 152.548 18.3029 153.076C18.6038 153.604 19.5345 154.081 21.0951 154.509C22.7363 154.851 25.2891 154.885 28.7532 154.61ZM66.1819 112.397L66.4261 102.804L86.3843 101.219L86.1884 108.917C90.7581 102.25 96.8614 98.6135 104.498 98.0069C112.214 97.3939 117.33 100.139 119.846 106.243C124.416 99.5763 130.479 95.9429 138.038 95.3424C143.706 94.8921 148.032 96.282 151.014 99.512C153.998 102.663 155.402 107.673 155.228 114.542L154.441 145.452L161.163 145.273L160.922 154.747L132.815 156.98L133.044 147.979L136.951 147.314C138.136 147.063 138.97 146.681 139.455 146.17C140.02 145.573 140.359 144.601 140.472 143.253L141.096 118.738C141.206 114.395 140.776 111.238 139.805 109.267C138.914 107.21 136.658 106.326 133.036 106.613C129.415 106.901 126.592 108.228 124.567 110.595C122.621 112.956 121.601 115.992 121.507 119.703L120.783 148.126L127.27 147.965L127.029 157.44L99.1579 159.654L99.387 150.653L103.293 149.988C104.478 149.736 105.352 149.352 105.915 148.834C106.481 148.238 106.781 147.229 106.817 145.808L107.438 121.411C107.549 117.069 107.118 113.912 106.147 111.941C105.257 109.884 102.961 109.002 99.2609 109.296C95.6393 109.584 92.8546 110.948 90.9068 113.388C88.959 115.827 87.9419 118.745 87.8555 122.14L87.1261 150.8L93.4942 150.648L93.2531 160.123L65.3824 162.337L65.6115 153.336L69.5177 152.671C70.7027 152.42 71.5767 152.035 72.1399 151.518C72.7051 150.921 73.0058 149.912 73.0419 148.491L73.16 148.482L73.9919 115.795C74.0261 114.453 73.813 113.564 73.3527 113.127C72.9731 112.606 72.2332 112.35 71.1329 112.358L66.1819 112.397ZM222.396 92.7776L221.275 136.833C221.242 138.097 221.417 138.95 221.799 139.392C222.259 139.828 223.039 140.042 224.14 140.033L227.913 139.97L227.671 149.444L208.894 150.936L209.069 144.067L208.718 143.977C204.637 149.974 199.171 153.245 192.322 153.789C184.291 154.427 178.412 152.333 174.685 147.508C170.958 142.682 169.208 135.809 169.435 126.887C169.708 116.149 172.519 107.574 177.868 101.161C183.217 94.7475 191.088 91.1281 201.48 90.3025C208.172 89.7708 215.144 90.5959 222.396 92.7776ZM207.72 132.237L208.501 101.564C206.322 100.713 203.304 100.44 199.446 100.747C194.172 101.166 190.299 103.601 187.828 108.052C185.358 112.503 184.033 118.242 183.855 125.269C183.529 138.059 187.46 144.129 195.648 143.479C199.112 143.204 201.973 141.952 204.23 139.724C206.488 137.417 207.652 134.922 207.72 132.237ZM242.58 135.023L243.415 102.218C243.447 100.954 243.233 100.105 242.773 99.6685C242.393 99.1471 241.653 98.8907 240.553 98.8993L235.602 98.9381L235.846 89.3452L255.804 87.7597L255.578 96.642C257.074 93.4502 259.343 90.7486 262.385 88.5371C265.429 86.2466 268.88 84.9482 272.737 84.6417C276.674 84.329 280.392 84.9004 283.89 86.3559L283.441 104.002L272.437 105.703L272.576 100.256C272.616 98.6766 272.247 97.721 271.47 97.3887C270.614 97.0628 269.556 96.9498 268.297 97.0499C265.147 97.3001 262.52 98.6513 260.415 101.104C258.39 103.471 257.334 106.391 257.245 109.865L256.546 137.341L266.808 136.998L266.57 146.354L234.921 148.869L235.15 139.868L239.056 139.203C240.241 138.951 241.115 138.567 241.678 138.049C242.243 137.453 242.544 136.444 242.58 135.023ZM304.415 71.3698L312.091 70.76L311.772 83.3136L327.479 82.0658L326.045 92.1077L311.519 93.2617L310.726 124.409C310.638 127.883 311.205 130.28 312.429 131.601C313.654 132.843 315.566 133.361 318.164 133.155C320.841 132.942 323.539 131.901 326.258 130.03L329.569 138.868C325.562 141.944 320.527 143.723 314.465 144.204C310.922 144.486 307.942 144.25 305.526 143.496C303.107 142.821 301.322 141.978 300.169 140.967C299.016 139.955 298.152 138.409 297.576 136.327C297.001 134.245 296.689 132.615 296.64 131.437C296.593 130.18 296.6 128.368 296.66 125.999L297.465 94.3781L289.08 95.0442L290.481 86.305C294.19 85.6952 297.018 84.1705 298.966 81.7307C300.915 79.212 302.732 75.7584 304.415 71.3698ZM366.216 87.9709C364.344 87.4105 362.07 87.2366 359.393 87.4492C356.716 87.6619 354.535 88.4655 352.85 89.8601C351.245 91.1695 350.42 92.7321 350.373 94.5481C350.329 96.285 350.57 97.6448 351.095 98.6274C351.7 99.5248 352.624 100.279 353.866 100.889C355.808 101.759 358.147 102.48 360.882 103.05C363.619 103.542 365.651 103.971 366.978 104.339C368.306 104.627 369.941 105.207 371.884 106.077C373.904 106.94 375.412 107.924 376.405 109.027C379.086 111.729 380.369 115.37 380.252 119.949C380.101 125.871 377.818 130.701 373.401 134.44C369.065 138.094 363.591 140.183 356.977 140.709C347.372 141.472 340.16 140.823 335.341 138.764L335.76 122.302L346.41 120.628L346.265 126.313C346.177 129.787 349.439 131.261 356.052 130.736C362.666 130.211 366.034 127.54 366.156 122.724C366.201 120.987 365.646 119.612 364.493 118.601C363.419 117.583 362.336 116.921 361.244 116.613C360.152 116.306 358.823 116.018 357.259 115.748C355.773 115.472 354.287 115.196 352.801 114.92C351.394 114.638 349.833 114.25 348.117 113.756C346.481 113.177 344.656 112.337 342.641 111.236C338.693 108.95 336.795 104.767 336.95 98.6874C337.107 92.529 339.393 87.6198 343.807 83.9598C348.222 80.2998 353.696 78.2102 360.231 77.6911C366.844 77.1657 373.339 78.2256 379.714 80.8709L379.353 95.0825L368.703 96.7558L368.83 91.7818C368.88 89.808 368.009 88.5377 366.216 87.9709ZM394.811 122.929L396.279 65.254C396.311 63.9907 396.097 63.141 395.636 62.7048C395.255 62.2623 394.514 62.0454 393.414 62.054L389.286 62.1455L389.536 52.3158L410.557 50.6459L409.747 82.5035C413.989 76.3358 419.811 72.9579 427.212 72.37C433.195 71.8947 437.757 73.2657 440.896 76.4832C444.117 79.6156 445.639 84.6162 445.465 91.4851L444.678 122.395L451.4 122.216L451.159 131.69L423.052 133.923L423.281 124.922L427.188 124.258C428.373 124.006 429.247 123.621 429.81 123.104C430.375 122.507 430.676 121.498 430.712 120.077L431.333 95.6807C431.437 91.5751 430.848 88.4702 429.566 86.3658C428.363 84.2552 425.872 83.35 422.093 83.6502C418.392 83.9442 415.37 85.3661 413.027 87.9161C410.764 90.3809 409.591 93.2713 409.506 96.5873L408.777 125.247L415.499 125.068L415.258 134.542L387.151 136.775L387.38 127.774L391.286 127.11C392.471 126.858 393.345 126.473 393.909 125.956C394.474 125.359 394.775 124.35 394.811 122.929ZM489.284 67.4389C495.189 66.9698 499.836 68.0583 503.226 70.7043C506.618 73.2715 508.248 77.1605 508.115 82.3714C508.027 85.8453 507.2 88.9839 505.636 91.7872C504.074 94.5115 502.171 96.7112 499.929 98.3865C497.686 100.062 494.978 101.498 491.805 102.696C486.49 104.694 480.525 105.956 473.912 106.481C474.042 110.647 475.254 113.939 477.55 116.356C479.848 118.695 483.437 119.671 488.318 119.283C493.2 118.895 498.125 116.77 503.095 112.909L507.338 122.145C505.728 123.691 503.014 125.365 499.196 127.165C495.458 128.959 491.187 130.047 486.385 130.428C476.78 131.191 469.8 129.106 465.447 124.173C461.096 119.161 459.039 111.996 459.277 102.68C459.514 93.3632 462.271 85.3435 467.55 78.6207C472.828 71.8979 480.073 68.1706 489.284 67.4389ZM483.162 94.9909C486.089 94.2068 488.795 92.8493 491.28 90.9184C493.766 88.9086 495.041 86.68 495.103 84.2324C495.226 79.4162 492.925 77.1958 488.201 77.5711C483.792 77.9213 480.362 79.9667 477.91 83.7073C475.459 87.3688 474.054 91.6566 473.693 96.5704C477.159 96.2163 480.315 95.6898 483.162 94.9909ZM546.487 62.8946C552.392 62.4255 557.039 63.514 560.429 66.1601C563.821 68.7272 565.45 72.6162 565.318 77.8271C565.229 81.3011 564.403 84.4397 562.839 87.2429C561.277 89.9672 559.374 92.167 557.132 93.8422C554.889 95.5174 552.181 96.9539 549.008 98.1515C543.693 100.15 537.728 101.411 531.115 101.937C531.245 106.102 532.457 109.394 534.753 111.812C537.05 114.151 540.64 115.127 545.521 114.739C550.403 114.351 555.328 112.226 560.298 108.364L564.541 117.601C562.931 119.147 560.216 120.82 556.399 122.621C552.661 124.415 548.39 125.503 543.588 125.884C533.982 126.647 527.003 124.562 522.65 119.629C518.299 114.616 516.242 107.452 516.479 98.1354C516.717 88.8189 519.474 80.7993 524.752 74.0765C530.031 67.3537 537.276 63.6264 546.487 62.8946ZM540.364 90.4466C543.292 89.6625 545.998 88.305 548.482 86.3742C550.969 84.3644 552.244 82.1357 552.306 79.6881C552.429 74.872 550.128 72.6515 545.404 73.0268C540.995 73.377 537.565 75.4224 535.112 79.163C532.662 82.8246 531.256 87.1123 530.896 92.0261C534.362 91.672 537.518 91.1455 540.364 90.4466ZM587.431 48.8866L595.107 48.2768L594.788 60.8304L610.494 59.5826L609.06 69.6245L594.534 70.7785L593.742 101.926C593.653 105.4 594.221 107.797 595.444 109.118C596.67 110.36 598.582 110.878 601.18 110.672C603.857 110.459 606.555 109.417 609.274 107.547L612.584 116.384C608.578 119.46 603.543 121.239 597.481 121.721C593.938 122.002 590.958 121.766 588.542 121.013C586.123 120.338 584.337 119.495 583.185 118.484C582.032 117.472 581.167 115.925 580.592 113.844C580.016 111.762 579.704 110.132 579.656 108.954C579.609 107.697 579.616 105.884 579.676 103.516L580.481 71.8949L572.096 72.561L573.497 63.8218C577.205 63.2121 580.034 61.6873 581.981 59.2475C583.931 56.7288 585.748 53.2752 587.431 48.8866ZM665.481 104.027C674.929 103.277 679.749 99.1115 679.942 91.532C680.042 87.5843 678.03 84.8288 673.906 83.2654C671.729 82.3352 668.882 81.5371 665.363 80.8711C661.923 80.1988 659.034 79.4828 656.696 78.723C654.439 77.878 652.152 76.6808 649.834 75.1315C645.277 72.0266 643.09 66.8817 643.273 59.697C643.458 52.4333 646.083 46.5516 651.147 42.052C656.293 37.4672 662.881 34.8558 670.911 34.2179C679.02 33.5737 686.498 34.5949 693.344 37.2816L692.892 55.0461L680.825 56.832L681 49.9631C681.03 48.7788 680.894 47.9228 680.594 47.3952C679.766 45.9638 676.99 45.4358 672.266 45.8111C667.621 46.1801 664.136 47.2843 661.81 49.1237C659.564 50.9569 658.396 53.6104 658.308 57.0843C658.243 59.6108 659.132 61.7465 660.973 63.4913C662.201 64.6544 664.024 65.5733 666.442 66.2479C668.942 66.8373 671.558 67.4568 674.291 68.1064C677.104 68.7497 679.56 69.5001 681.659 70.3576C683.838 71.2089 686.085 72.4487 688.4 74.077C693.112 77.2483 695.374 82.5448 695.185 89.9664C694.996 97.3881 692.171 103.443 686.709 108.132C681.325 112.815 674.264 115.503 665.525 116.197C656.864 116.885 649.111 115.886 642.265 113.199L642.741 94.4872L654.808 92.7013L654.624 99.9255C654.594 101.11 654.73 101.966 655.031 102.493C655.331 103.021 656.262 103.499 657.823 103.926C659.464 104.269 662.017 104.302 665.481 104.027ZM702.464 111.726L702.708 102.133L706.615 101.468C708.904 101.05 710.074 99.8542 710.124 97.8804L711.525 42.8105L704.803 42.9899L705.059 32.9234L737.417 30.3528C748.991 29.4334 757.927 31.7964 764.226 37.4419C770.604 43.0811 773.64 51.9407 773.332 64.0205C773.141 71.5211 771.99 78.1524 769.879 83.9144C767.77 89.5975 764.983 94.1526 761.517 97.5797C754.586 104.434 746.081 108.261 736.004 109.062L702.464 111.726ZM725.906 42.7318L724.483 98.6307L736.529 97.6737C743.3 97.1358 748.637 94.2692 752.541 89.0739C756.445 83.8786 758.515 76.6227 758.752 67.3062C759.214 49.147 751.769 40.6772 736.417 41.8968L725.906 42.7318ZM788.441 91.0678L789.828 36.59L783.105 36.7695L783.362 26.7029L811.705 24.4513L811.46 34.0441L807.554 34.709C805.265 35.1273 804.091 36.4812 804.033 38.7708L803.37 64.8254L828.209 33.5409L821.605 33.711L821.861 23.6445L849.495 21.4491L849.251 31.042L845.345 31.7069C843.845 31.9836 842.242 33.214 840.537 35.3982L823.243 57.3372L843.269 90.1397L849.519 89.9978L849.262 100.064L819.03 102.466L819.274 92.8732L822.944 92.2271C824.523 91.9441 825.326 91.2499 825.354 90.1446C825.366 89.6709 825.185 89.0549 824.812 88.2966L813.636 68.9739L802.924 82.353L802.644 93.367L809.366 93.1876L809.11 103.254L780.767 105.506L781.011 95.9129L784.917 95.248C786.102 94.9963 786.976 94.6117 787.539 94.0942C788.104 93.4977 788.405 92.4889 788.441 91.0678Z" fill="#211F26"/>
<path d="M1131.78 182.17L1133.24 148.238L1156.08 146.825L1155.82 152.74L1140.15 153.71L1139.8 161.795L1154.3 160.898L1154.05 166.813L1139.55 167.71L1139.2 175.812L1154.94 174.838L1154.69 180.753L1131.78 182.17ZM1203.29 155.752L1196.04 156.201C1195.95 155.27 1195.72 154.453 1195.34 153.749C1194.96 153.034 1194.47 152.437 1193.85 151.957C1193.23 151.478 1192.51 151.126 1191.68 150.902C1190.87 150.677 1189.97 150.594 1189 150.654C1187.25 150.763 1185.7 151.294 1184.36 152.247C1183.02 153.189 1181.96 154.511 1181.17 156.212C1180.38 157.902 1179.94 159.923 1179.84 162.276C1179.73 164.695 1180 166.705 1180.65 168.307C1181.31 169.907 1182.27 171.087 1183.54 171.846C1184.8 172.605 1186.29 172.931 1188 172.826C1188.96 172.766 1189.85 172.584 1190.68 172.28C1191.52 171.974 1192.27 171.559 1192.93 171.033C1193.59 170.497 1194.15 169.862 1194.6 169.129C1195.06 168.396 1195.39 167.571 1195.6 166.655L1202.84 166.24C1202.59 167.809 1202.06 169.34 1201.24 170.833C1200.44 172.315 1199.39 173.663 1198.08 174.879C1196.79 176.083 1195.26 177.07 1193.5 177.839C1191.75 178.598 1189.79 179.044 1187.61 179.178C1184.59 179.365 1181.91 178.848 1179.59 177.626C1177.28 176.403 1175.49 174.536 1174.22 172.026C1172.96 169.515 1172.41 166.415 1172.57 162.726C1172.73 159.025 1173.56 155.834 1175.06 153.153C1176.56 150.471 1178.54 148.377 1180.98 146.871C1183.42 145.354 1186.13 144.503 1189.11 144.319C1191.07 144.198 1192.88 144.361 1194.54 144.81C1196.2 145.257 1197.66 145.971 1198.92 146.951C1200.17 147.92 1201.18 149.141 1201.93 150.615C1202.69 152.088 1203.15 153.8 1203.29 155.752ZM1224.81 176.415L1217.13 176.89L1230.29 142.234L1239.53 141.663L1249.75 174.871L1242.07 175.347L1234.71 149.694L1234.44 149.711L1224.81 176.415ZM1224.9 163.107L1243.04 161.985L1242.8 167.585L1224.66 168.707L1224.9 163.107ZM1308.29 147.142C1308.21 145.814 1307.69 144.81 1306.71 144.133C1305.74 143.455 1304.4 143.169 1302.67 143.275C1301.5 143.348 1300.51 143.575 1299.69 143.956C1298.87 144.326 1298.23 144.811 1297.78 145.412C1297.33 146.013 1297.1 146.677 1297.07 147.406C1297.02 148.015 1297.12 148.538 1297.38 148.973C1297.65 149.408 1298.02 149.776 1298.5 150.077C1298.99 150.367 1299.55 150.613 1300.19 150.815C1300.83 151.007 1301.52 151.163 1302.25 151.283L1305.26 151.823C1306.73 152.063 1308.06 152.421 1309.28 152.897C1310.49 153.373 1311.53 153.986 1312.4 154.736C1313.27 155.487 1313.93 156.393 1314.38 157.456C1314.84 158.518 1315.05 159.756 1315 161.169C1314.9 163.246 1314.29 165.079 1313.17 166.668C1312.07 168.246 1310.52 169.515 1308.52 170.476C1306.53 171.425 1304.16 171.985 1301.4 172.156C1298.66 172.325 1296.3 172.053 1294.3 171.339C1292.32 170.624 1290.8 169.479 1289.73 167.904C1288.68 166.317 1288.17 164.304 1288.22 161.867L1295.16 161.438C1295.19 162.57 1295.47 163.5 1296.01 164.227C1296.57 164.942 1297.32 165.462 1298.27 165.789C1299.24 166.104 1300.34 166.223 1301.58 166.147C1302.79 166.071 1303.85 165.83 1304.76 165.421C1305.68 165.011 1306.4 164.476 1306.93 163.816C1307.45 163.156 1307.73 162.417 1307.76 161.6C1307.8 160.838 1307.6 160.211 1307.17 159.72C1306.75 159.228 1306.12 158.826 1305.27 158.515C1304.44 158.203 1303.41 157.936 1302.19 157.715L1298.53 157.015C1295.71 156.496 1293.5 155.548 1291.91 154.17C1290.31 152.792 1289.58 150.849 1289.7 148.341C1289.77 146.288 1290.4 144.459 1291.57 142.855C1292.75 141.251 1294.33 139.958 1296.31 138.977C1298.28 137.995 1300.51 137.428 1302.98 137.275C1305.5 137.119 1307.67 137.414 1309.51 138.159C1311.36 138.904 1312.78 140.012 1313.76 141.482C1314.74 142.953 1315.21 144.698 1315.15 146.717L1308.29 147.142ZM1363.4 150.92C1363.24 154.621 1362.4 157.812 1360.89 160.494C1359.39 163.176 1357.41 165.276 1354.94 166.794C1352.49 168.301 1349.77 169.147 1346.78 169.332C1343.76 169.518 1341.09 169.001 1338.75 167.779C1336.42 166.558 1334.61 164.692 1333.33 162.183C1332.05 159.673 1331.49 156.573 1331.65 152.884C1331.81 149.184 1332.64 145.993 1334.14 143.311C1335.64 140.63 1337.62 138.536 1340.07 137.029C1342.53 135.511 1345.26 134.659 1348.27 134.473C1351.26 134.288 1353.93 134.806 1356.26 136.027C1358.61 137.237 1360.42 139.097 1361.7 141.607C1362.99 144.116 1363.56 147.22 1363.4 150.92ZM1356.13 151.37C1356.23 148.973 1355.96 146.974 1355.32 145.373C1354.68 143.77 1353.74 142.584 1352.48 141.813C1351.23 141.043 1349.73 140.711 1348 140.818C1346.27 140.925 1344.74 141.444 1343.41 142.375C1342.08 143.305 1341.03 144.615 1340.24 146.305C1339.46 147.995 1339.02 150.038 1338.92 152.435C1338.81 154.832 1339.08 156.831 1339.72 158.433C1340.36 160.035 1341.31 161.221 1342.57 161.991C1343.82 162.762 1345.32 163.094 1347.05 162.986C1348.78 162.879 1350.31 162.36 1351.64 161.43C1352.97 160.5 1354.02 159.19 1354.8 157.5C1355.58 155.81 1356.03 153.767 1356.13 151.37ZM1380.1 166.808L1381.55 132.877L1388.72 132.433L1387.52 160.45L1402.05 159.551L1401.8 165.466L1380.1 166.808ZM1425.37 164.007L1417.69 164.482L1430.85 129.827L1440.08 129.256L1450.31 162.464L1442.63 162.939L1435.27 137.287L1435 137.303L1425.37 164.007ZM1425.46 150.7L1443.6 149.577L1443.36 155.177L1425.22 156.3L1425.46 150.7ZM1466.51 161.462L1467.97 127.531L1481.34 126.703C1483.9 126.545 1486.07 126.868 1487.84 127.673C1489.62 128.466 1490.95 129.667 1491.83 131.276C1492.71 132.874 1493.11 134.794 1493.01 137.036C1492.92 139.289 1492.35 141.258 1491.31 142.941C1490.27 144.614 1488.81 145.938 1486.93 146.914C1485.06 147.889 1482.82 148.457 1480.22 148.618L1471.26 149.172L1471.51 143.406L1479.31 142.924C1480.68 142.839 1481.82 142.581 1482.74 142.149C1483.66 141.718 1484.36 141.113 1484.83 140.335C1485.32 139.555 1485.58 138.608 1485.63 137.493C1485.68 136.366 1485.5 135.43 1485.08 134.685C1484.67 133.939 1484.01 133.395 1483.12 133.055C1482.23 132.702 1481.1 132.568 1479.72 132.653L1474.88 132.952L1473.68 161.019L1466.51 161.462ZM1485.48 144.888L1493.24 159.808L1485.33 160.298L1477.75 145.366L1485.48 144.888Z" fill="#BCBAC7"/>
<path d="M943.129 193.84L944.587 159.909L958.16 159.069C960.653 158.915 962.718 159.156 964.352 159.793C965.986 160.43 967.195 161.38 967.977 162.643C968.759 163.894 969.114 165.37 969.041 167.071C968.984 168.397 968.669 169.578 968.096 170.616C967.524 171.643 966.761 172.506 965.806 173.203C964.863 173.89 963.796 174.402 962.604 174.74L962.59 175.071C963.878 175.047 965.071 175.337 966.167 175.941C967.275 176.544 968.156 177.432 968.81 178.603C969.464 179.763 969.756 181.177 969.684 182.845C969.607 184.645 969.091 186.28 968.136 187.749C967.193 189.207 965.838 190.398 964.07 191.322C962.303 192.247 960.15 192.787 957.612 192.944L943.129 193.84ZM950.548 187.532L956.391 187.17C958.388 187.047 959.861 186.576 960.81 185.757C961.759 184.927 962.261 183.872 962.316 182.59C962.356 181.651 962.166 180.837 961.744 180.147C961.323 179.457 960.701 178.934 959.88 178.577C959.07 178.219 958.091 178.076 956.944 178.147L950.936 178.519L950.548 187.532ZM951.144 173.664L956.457 173.336C957.439 173.275 958.318 173.05 959.094 172.66C959.882 172.259 960.51 171.724 960.979 171.057C961.459 170.388 961.718 169.606 961.757 168.712C961.809 167.486 961.416 166.524 960.577 165.827C959.748 165.129 958.539 164.829 956.95 164.927L951.505 165.264L951.144 173.664ZM985.535 157.376L993.562 156.879L1000.66 171.014L1001 170.994L1009.35 155.902L1017.38 155.406L1004.07 178.107L1003.56 190.102L996.441 190.542L996.956 178.547L985.535 157.376Z" fill="#BCBAC7"/>
<g clip-path="url(#clip1_1025_134)">
<path d="M1064.96 175.035L1083.94 167.332L1084.34 161.674L1065.36 169.38L1064.96 175.035Z" fill="#BCBAC7"/>
<path d="M1064.96 175.035L1083.94 167.332L1084.34 161.674L1065.36 169.38L1064.96 175.035Z" fill="#BCBAC7"/>
<path d="M1096.13 165.638C1096.1 164.583 1095.99 163.54 1095.81 162.518C1095.5 160.816 1094.98 159.182 1094.25 157.655L1089.27 159.679C1090.55 162.094 1091.13 164.874 1090.96 167.739C1090.96 167.803 1090.95 167.868 1090.95 167.932C1090.55 173.623 1087.23 179.003 1082.19 182.13C1077.15 185.257 1071.12 185.681 1066.27 183.249L1083.31 176.335L1083.71 170.679L1064.72 178.383L1061.72 179.599L1056.55 181.699C1058.42 184.484 1060.99 186.693 1064.03 188.132C1070.42 191.143 1078.26 190.456 1084.77 186.315C1091.29 182.173 1095.56 175.159 1096.08 167.755C1096.13 167.04 1096.14 166.334 1096.12 165.638L1096.13 165.638Z" fill="#BCBAC7"/>
<path d="M1096.13 165.638C1096.1 164.583 1095.99 163.54 1095.81 162.518C1095.5 160.816 1094.98 159.182 1094.25 157.655L1089.27 159.679C1090.55 162.094 1091.13 164.874 1090.96 167.739C1090.96 167.803 1090.95 167.868 1090.95 167.932C1090.55 173.623 1087.23 179.003 1082.19 182.13C1077.15 185.257 1071.12 185.681 1066.27 183.249L1083.31 176.335L1083.71 170.679L1064.72 178.383L1061.72 179.599L1056.55 181.699C1058.42 184.484 1060.99 186.693 1064.03 188.132C1070.42 191.143 1078.26 190.456 1084.77 186.315C1091.29 182.173 1095.56 175.159 1096.08 167.755C1096.13 167.04 1096.14 166.334 1096.12 165.638L1096.13 165.638Z" fill="#BCBAC7"/>
<path d="M1058.46 172.409C1058.31 171.36 1058.27 170.287 1058.34 169.207C1058.34 169.144 1058.35 169.078 1058.35 169.015C1058.75 163.325 1062.07 157.947 1067.11 154.82C1072.15 151.692 1078.18 151.266 1083.02 153.696L1065.99 160.61L1065.59 166.266L1084.57 158.561L1087.58 157.346L1092.74 155.247C1090.88 152.462 1088.31 150.253 1085.26 148.814C1078.87 145.803 1071.04 146.489 1064.52 150.631C1058.01 154.773 1053.74 161.786 1053.22 169.189C1053.17 169.897 1053.15 170.604 1053.17 171.306C1053.25 174.121 1053.88 176.835 1055.04 179.289L1060.03 177.264C1059.23 175.771 1058.7 174.131 1058.46 172.409Z" fill="#BCBAC7"/>
<path d="M1058.46 172.409C1058.31 171.36 1058.27 170.287 1058.34 169.207C1058.34 169.144 1058.35 169.078 1058.35 169.015C1058.75 163.325 1062.07 157.947 1067.11 154.82C1072.15 151.692 1078.18 151.266 1083.02 153.696L1065.99 160.61L1065.59 166.266L1084.57 158.561L1087.58 157.346L1092.74 155.247C1090.88 152.462 1088.31 150.253 1085.26 148.814C1078.87 145.803 1071.04 146.489 1064.52 150.631C1058.01 154.773 1053.74 161.786 1053.22 169.189C1053.17 169.897 1053.15 170.604 1053.17 171.306C1053.25 174.121 1053.88 176.835 1055.04 179.289L1060.03 177.264C1059.23 175.771 1058.7 174.131 1058.46 172.409Z" fill="#BCBAC7"/>
</g>
</g>
<defs>
<clipPath id="clip0_1025_134">
<rect width="1500" height="300" fill="white"/>
</clipPath>
<clipPath id="clip1_1025_134">
<rect width="43.0659" height="43.0659" fill="white" transform="matrix(0.998092 -0.0617454 -0.0429219 0.999078 1054.08 148.33)"/>
</clipPath>
</defs>
</svg>
